<svg width="32" height="32" viewBox="0 0 32 32" fill="none" xmlns="http://www.w3.org/2000/svg">
<g clip-path="url(#clip0_24_10)">
<path d="M16.0199 31.9529C24.8392 31.9529 31.9886 24.8034 31.9886 15.9841C31.9886 7.16483 24.8392 0.0153809 16.0199 0.0153809C7.2006 0.0153809 0.0511475 7.16483 0.0511475 15.9841C0.0511475 24.8034 7.2006 31.9529 16.0199 31.9529Z" fill="#FE755D"/>
<path d="M19.3907 4.09688C18.9907 4.13438 18.722 4.275 18.2251 4.69688C17.4907 5.31875 16.397 6.8375 15.372 8.6625C14.8907 9.51563 14.0563 11.1969 13.622 12.1906C13.4907 12.4969 13.2001 13.3188 13.1532 13.5281C13.1376 13.6031 13.1157 13.7656 13.1063 13.8875C13.0938 14.075 13.0782 14.1219 13.0095 14.1813C12.9595 14.2281 12.9001 14.25 12.847 14.2438C12.7313 14.2313 12.722 14.1281 12.7876 13.6406C12.872 13.0188 12.8845 12.5281 12.847 11.6563C12.7688 9.90625 12.6126 8.8875 12.3532 8.44688C12.1813 8.15313 11.722 7.84063 11.2345 7.6875C10.9626 7.60313 10.4095 7.56875 10.1501 7.62188C9.68446 7.71875 9.40009 7.95938 7.85634 9.56563C6.08446 11.4063 5.55321 12.0219 4.91571 12.9719C4.66571 13.3406 4.58134 13.5031 4.49696 13.7469C4.31884 14.2625 4.44071 14.8656 4.80321 15.2531C5.10009 15.5719 5.45009 15.7188 5.90634 15.7188C6.50634 15.7188 6.90946 15.475 7.32196 14.8594C7.83446 14.0969 8.20009 13.6406 8.92196 12.85C9.49384 12.225 9.68134 12.0438 9.72509 12.0875C9.83134 12.1938 9.86571 13.1406 9.81571 14.7813C9.75321 16.8969 9.70321 17.7906 9.49696 20.4313C9.40009 21.6469 9.40009 21.7 9.44696 21.9469C9.51259 22.2813 9.65009 22.5531 9.85946 22.7594C10.322 23.2188 11.0282 23.3156 11.6563 23.0063C11.8751 22.9 12.3032 22.4906 12.4813 22.2219C12.6407 21.9813 13.1345 21.0031 13.497 20.2094C13.8313 19.475 14.0907 18.8688 14.8376 17.075C16.697 12.6188 17.7501 10.4656 18.9845 8.59375C19.4188 7.9375 19.7657 7.47813 19.8501 7.45C19.9813 7.40938 20.0688 7.5625 20.8845 9.25313C21.0501 9.59375 21.122 9.70938 21.2657 9.85313C21.7345 10.3219 22.4376 10.4344 23.0313 10.1344C23.4938 9.90313 23.7782 9.4875 23.8313 8.95313C23.872 8.55625 23.772 8.22813 23.2907 7.20625C22.6657 5.87813 22.2063 5.175 21.6282 4.67188C21.0657 4.18438 20.9188 4.125 20.1407 4.09688C19.8501 4.0875 19.5126 4.0875 19.3907 4.09688ZM20.3251 4.5125C20.4032 4.55938 20.4845 4.625 20.5032 4.65938C20.5751 4.79375 20.5376 4.80313 19.9626 4.79375C19.6657 4.79063 19.4126 4.78438 19.4001 4.78438C19.3438 4.77813 19.3813 4.6625 19.4626 4.58438C19.6032 4.45 19.7407 4.40313 19.9751 4.41563C20.1282 4.425 20.2188 4.45 20.3251 4.5125ZM10.7126 7.98125C10.8438 8.05 11.0126 8.2375 10.9907 8.29375C10.9751 8.33438 10.9188 8.34375 10.7063 8.34375C10.2626 8.34375 10.1876 8.275 10.4032 8.05938C10.5345 7.92813 10.5845 7.91563 10.7126 7.98125Z" fill="#3D003A"/>
<path d="M21.1095 11.6875C20.1095 11.7469 19.1345 12.1625 18.297 12.8844C17.647 13.4469 17.1657 14.1031 16.6626 15.1094C16.3438 15.7531 16.1251 16.325 15.5938 17.8906C15.3345 18.6625 15.0407 19.4938 14.947 19.7344C14.6313 20.5406 14.2313 21.2938 13.7126 22.0625C13.0407 23.0531 12.4813 23.5531 11.6845 23.8625C10.9782 24.1344 10.1657 24.1688 9.41883 23.95C8.96571 23.8188 8.77508 23.7094 8.42196 23.375C8.05321 23.025 7.83758 22.8906 7.54071 22.8281C6.77821 22.6656 6.08758 22.9406 5.80946 23.5156C5.56883 24.0156 5.61883 24.6063 5.93758 25.0844C6.10633 25.3406 6.63133 25.8875 6.84071 26.0281C7.09696 26.2 7.61571 26.4875 7.80946 26.5625C9.12821 27.075 10.8001 27.1719 12.197 26.8125C14.0126 26.3469 15.3407 25.2719 16.6001 23.25C16.8657 22.825 17.0438 22.5063 17.2657 22.0625C17.4626 21.675 17.5501 21.5313 17.5938 21.5313C17.6095 21.5313 17.6782 21.6375 17.7501 21.7656C18.0001 22.2156 18.3376 22.4875 18.797 22.6031C19.3688 22.7469 20.3282 22.85 21.1407 22.8531C21.9157 22.8563 22.4126 22.8 23.0188 22.6406C23.5126 22.5125 23.6438 22.4625 24.172 22.2031C25.4313 21.5844 26.4532 20.3813 26.8376 19.0625C27.1626 17.9563 27.172 16.9219 26.8626 15.85C26.5407 14.7344 26.0157 13.8813 25.1907 13.1344C24.4188 12.4313 23.5188 11.9594 22.5938 11.775C22.0845 11.675 21.7063 11.65 21.1095 11.6875ZM22.0688 12.4281C22.3126 12.5438 22.4376 12.65 22.372 12.6906C22.3126 12.7281 20.8095 12.725 20.7532 12.6906C20.6907 12.65 20.747 12.5844 20.9282 12.4781C21.1501 12.3469 21.3032 12.3125 21.5938 12.3219C21.8157 12.3281 21.897 12.3469 22.0688 12.4281ZM21.9376 14.6594C22.172 14.7125 22.6251 14.9531 22.8938 15.1656C23.8188 15.9031 24.2407 17.1875 23.8907 18.1938C23.5938 19.0469 22.8688 19.6594 21.922 19.8594C21.4282 19.9656 20.5595 19.9344 19.6407 19.775C19.1126 19.6844 18.8532 19.6906 18.5188 19.7969C18.322 19.8625 18.2407 19.8781 18.2157 19.8531C18.1782 19.8156 18.2376 19.6094 18.5751 18.625C19.3001 16.5156 19.6782 15.7688 20.3313 15.1594C20.7376 14.7781 21.0751 14.6281 21.5313 14.6281C21.6782 14.6281 21.8595 14.6406 21.9376 14.6594ZM19.8126 20.4219C20.0438 20.4469 20.4657 20.4688 20.7501 20.4688C21.4938 20.4688 22.3095 20.5469 22.3845 20.6219C22.4032 20.6406 22.3782 20.6688 22.3251 20.6969C21.8032 20.9625 19.9782 20.9156 19.0345 20.6094C18.6907 20.4969 18.6001 20.4344 18.6907 20.3688C18.7438 20.3344 19.2376 20.3563 19.8126 20.4219ZM11.2626 24.7031C11.4501 24.7281 11.6095 24.7563 11.6188 24.7656C11.6501 24.7969 11.5501 24.8656 11.3938 24.9156C10.8595 25.0938 9.52821 25.05 9.27508 24.8438L9.20321 24.7875L9.32821 24.7531C9.79383 24.6313 10.5595 24.6094 11.2626 24.7031Z" fill="#3D003A"/>
</g>
<defs>
<clipPath id="clip0_24_10">
<rect width="32" height="32" fill="white"/>
</clipPath>
</defs>
</svg>
